<svg width="556" height="179" viewBox="0 0 556 179" fill="none" xmlns="http://www.w3.org/2000/svg">
<path d="M128.295 129.898C96.0076 113.073 68.1855 90.5322 48.8698 59.2092C39.6983 44.3365 29.4246 25.7546 27.8348 7.92509" stroke="#2E2E2E" stroke-width="4" stroke-linecap="round"/>
<path d="M110.248 170.392C74.4053 159.635 26.4157 135.537 12.7983 104.264" stroke="#2E2E2E" stroke-width="4" stroke-linecap="round"/>
<path d="M120.358 151.279C94.3823 144.236 71.4331 126.182 51.1413 109.213C44.5024 103.661 37.5403 96.1906 31.6888 89.7823C26.5169 84.1182 21.5931 77.0906 17.2067 70.8926C8.35967 58.3915 6.63532 51.6611 3.17875 46.0558" stroke="#2E2E2E" stroke-width="4" stroke-linecap="round"/>
<path d="M512 122.543C514.788 115.223 516.577 112.109 525 116.321C528.422 118.031 529.95 121.543 534 121.543C538.045 121.543 541.684 116.304 544.222 113.765C547.098 110.889 552.109 117.325 554 113.543" stroke="#2E2E2E" stroke-width="4" stroke-linecap="round"/>
<path d="M384 33.0768C385.449 35.8961 390.177 48.8332 395.58 46.8846C397.517 46.1862 398.721 42.4661 398.941 40.5992C399.156 38.7717 398.326 36.6318 398.034 34.8328C397.89 33.9446 396.709 31.7292 397.482 32.1907C400.484 33.9822 404.781 44.6475 408.184 44.2925C411.765 43.919 413.507 35.9403 413.16 33.0949C412.919 31.1144 411.724 25.3076 412.498 27.146C414.226 31.2517 416.347 39.9815 420.981 41.7786C426.997 44.1115 434.133 38.6268 438.303 35.3637" stroke="url(#paint0_linear_12_15562)" stroke-width="4" stroke-linecap="round"/>
<defs>
<linearGradient id="paint0_linear_12_15562" x1="387.67" y1="31.5316" x2="430.412" y2="21.0415" gradientUnits="userSpaceOnUse">
<stop stop-color="#D9B227"/>
<stop offset="1" stop-color="#FD4141"/>
</linearGradient>
</defs>
</svg>
