<svg width="192" height="194" viewBox="0 0 192 194" fill="none" xmlns="http://www.w3.org/2000/svg">
<path d="M26.9736 89.3774C27.8826 100.315 31.9756 110.747 38.747 119.385L20.5603 137.571C14.497 130.882 9.61245 123.212 6.11469 114.889C2.71132 106.773 0.65653 98.1558 0.0314941 89.3774H26.9736Z" fill="#404040"/>
<path d="M20.5603 28.0425L38.8099 46.292C35.5717 50.449 32.9266 55.0356 30.9505 59.9203C28.8511 65.1426 27.5016 70.6359 26.9422 76.2365H0.0314941C0.666522 67.4512 2.73191 58.8286 6.14613 50.709C9.63077 42.3908 14.505 34.726 20.5603 28.0425V28.0425Z" fill="#404040"/>
<path d="M78.0287 0V23.5783C72.6521 24.2352 67.3995 25.6701 62.4356 27.8381C57.1662 30.0835 52.2646 33.1092 47.8957 36.8135L30.0391 18.9569C36.6147 13.5321 43.9903 9.15767 51.904 5.98888C60.2447 2.63626 69.0605 0.615313 78.0287 0V0Z" fill="#404040"/>
<path d="M107.674 162.596L106.102 163.036C101.2 164.291 96.1982 165.122 91.1534 165.52C88.5546 165.74 85.9348 165.85 83.294 165.85C81.5492 165.85 79.8044 165.85 78.0753 165.677C68.9773 165.044 60.0451 162.92 51.6362 159.389C43.8547 156.216 36.5909 151.899 30.0857 146.579L47.9109 128.769C56.4557 135.944 66.971 140.366 78.0753 141.454C80.4929 141.709 82.9222 141.834 85.3532 141.831C87.3494 141.831 89.2986 141.706 91.2163 141.517H91.4049L107.674 162.596Z" fill="#404040"/>
<path d="M139.128 18.9884L121.334 36.7821C116.941 33.1116 112.038 30.0988 106.778 27.8381C101.807 25.6904 96.5485 24.2817 91.1694 23.6569V0.0786133C100.141 0.673998 108.959 2.69565 117.294 6.06749C125.191 9.23097 132.554 13.5888 139.128 18.9884Z" fill="#404040"/>
<path d="M142.224 89.3774H169.182C168.209 102.905 163.776 115.955 156.308 127.276L139.694 101.842C140.988 97.7919 141.837 93.6122 142.224 89.3774V89.3774Z" fill="#404040"/>
<path d="M142.224 76.2366C141.681 70.6381 140.347 65.1449 138.263 59.9204C136.3 55.0148 133.654 50.4109 130.404 46.245L148.543 28.1055C154.58 34.8264 159.462 42.5016 162.989 50.8192C166.427 58.894 168.504 67.4828 169.135 76.2366H142.224Z" fill="#404040"/>
<path d="M68.9117 101.166L126.568 175.469V145.305L191.016 193.326L126.647 94.7846L126.553 124.933L97.1742 77.2581C88.969 64.2743 63.9603 68.4555 64.2747 87.9783C64.4164 92.7487 66.0368 97.3571 68.9117 101.166V101.166Z" fill="#FF7011"/>
</svg>
